<?xml version="1.0" encoding="UTF-8" standalone="no"?><!DOCTYPE svg PUBLIC "-//W3C//DTD SVG 1.1//EN" "http://www.w3.org/Graphics/SVG/1.1/DTD/svg11.dtd"><svg width="100%" height="100%" viewBox="0 0 512 512" version="1.1" xmlns="http://www.w3.org/2000/svg" xmlns:xlink="http://www.w3.org/1999/xlink" xml:space="preserve" xmlns:serif="http://www.serif.com/" style="fill-rule:evenodd;clip-rule:evenodd;stroke-linejoin:round;stroke-miterlimit:1.41421;"><path id="_-S-" serif:id="&quot;S&quot;" d="M284.123,8.801l0.537,0.002l0.536,0.004l0.536,0.006l0.537,0.008l0.537,0.009l0.537,0.01l0.536,0.013l0.538,0.014l0.537,0.015l0.537,0.018l0.538,0.018l0.537,0.021l0.538,0.022l0.538,0.024l0.537,0.025l0.538,0.027l0.539,0.029l0.538,0.03l0.538,0.032l0.538,0.034l0.539,0.035l0.538,0.037l0.539,0.039l0.538,0.04l0.539,0.042l0.538,0.044l0.539,0.045l0.539,0.047l0.539,0.048l0.539,0.051l0.539,0.052l0.539,0.053l0.539,0.055l0.539,0.057l0.539,0.059l0.539,0.06l0.539,0.062l0.539,0.063l0.539,0.066l0.539,0.067l0.539,0.068l0.539,0.07l0.539,0.072l0.539,0.074l0.539,0.075l0.54,0.077l0.539,0.079l0.539,0.08l0.538,0.083l0.539,0.083l0.539,0.086l0.539,0.087l0.539,0.089l0.539,0.09l0.538,0.093l0.539,0.094l0.538,0.095l0.539,0.098l0.538,0.099l0.539,0.1l0.538,0.103l0.538,0.104l0.538,0.106l0.538,0.107l0.538,0.11l0.538,0.111l0.538,0.113l0.537,0.114l0.538,0.116l0.537,0.118l0.537,0.12l0.538,0.121l0.537,0.123l0.536,0.125l0.537,0.126l0.537,0.129l0.177,0.043l0.359,0.088l0.535,0.135l0.535,0.136l0.536,0.139l0.535,0.139l0.534,0.142l0.535,0.143l0.534,0.145l0.534,0.147l0.534,0.148l0.534,0.151l0.534,0.152l0.533,0.153l0.533,0.156l0.533,0.157l0.533,0.159l0.532,0.161l0.533,0.162l0.532,0.164l0.531,0.166l0.532,0.168l0.531,0.169l0.531,0.171l0.531,0.173l0.53,0.175l0.531,0.177l0.529,0.178l0.53,0.18l0.529,0.181l0.53,0.184l0.528,0.185l0.529,0.187l0.528,0.189l0.528,0.19l0.528,0.193l0.527,0.194l0.527,0.195l0.526,0.198l0.527,0.199l0.526,0.201l0.525,0.203l0.526,0.205l0.525,0.206l0.524,0.209l0.525,0.21l0.524,0.211l0.523,0.214l0.523,0.215l0.523,0.217l0.523,0.219l0.522,0.221l0.521,0.222l0.522,0.224l0.521,0.226l0.52,0.228l0.52,0.229l0.52,0.232l0.519,0.233l0.519,0.235l0.519,0.236l0.518,0.239l0.518,0.24l0.517,0.242l0.517,0.244l0.516,0.246l0.516,0.247l0.515,0.249l0.515,0.251l0.515,0.253l0.514,0.254l0.513,0.257l0.514,0.258l0.512,0.26l0.512,0.262l0.512,0.263l0.511,0.265l0.511,0.268l0.51,0.269l0.51,0.27l0.509,0.273l0.509,0.274l0.513,0.279l0.632,0.346l0.634,0.351l0.633,0.353l0.63,0.356l0.629,0.357l0.628,0.36l0.625,0.363l0.623,0.364l0.622,0.367l0.62,0.369l0.618,0.371l0.616,0.373l0.614,0.376l0.612,0.378l0.61,0.38l0.609,0.382l0.606,0.384l0.605,0.387l0.603,0.389l0.601,0.39l0.599,0.393l0.597,0.396l0.595,0.397l0.593,0.399l0.592,0.402l0.589,0.403l0.588,0.406l0.585,0.408l0.584,0.41l0.581,0.412l0.58,0.414l0.578,0.416l0.576,0.418l0.574,0.42l0.571,0.422l0.57,0.425l0.568,0.426l0.566,0.428l0.564,0.431l0.562,0.432l0.56,0.434l0.558,0.437l0.557,0.438l0.554,0.44l0.552,0.442l0.55,0.445l0.548,0.446l0.546,0.448l0.544,0.45l0.542,0.452l0.54,0.454l0.538,0.455l0.536,0.458l0.534,0.46l0.531,0.461l0.53,0.463l0.528,0.466l0.526,0.467l0.523,0.469l0.522,0.47l0.52,0.473l0.517,0.474l0.515,0.477l0.514,0.478l0.511,0.48l0.509,0.481l0.508,0.484l0.505,0.485l0.503,0.487l0.5,0.489l0.499,0.491l0.497,0.492l0.495,0.494l0.492,0.496l0.491,0.497l0.488,0.5l0.486,0.501l0.484,0.502l0.482,0.505l0.48,0.506l0.478,0.508l0.475,0.509l0.474,0.511l0.471,0.513l0.469,0.515l0.467,0.516l0.465,0.518l0.175,0.195l0.286,0.326l0.456,0.525l0.454,0.526l0.453,0.527l0.45,0.53l0.447,0.53l0.446,0.533l0.443,0.534l0.442,0.535l0.439,0.537l0.436,0.539l0.435,0.54l0.433,0.541l0.43,0.543l0.428,0.545l0.426,0.546l0.423,0.547l0.422,0.549l0.419,0.551l0.417,0.551l0.414,0.554l0.413,0.555l0.41,0.556l0.408,0.557l0.406,0.559l0.403,0.561l0.402,0.562l0.399,0.563l0.397,0.565l0.394,0.566l0.393,0.567l0.39,0.569l0.388,0.57l0.385,0.572l0.383,0.572l0.382,0.575l0.378,0.575l0.377,0.577l0.374,0.578l0.372,0.579l9.846,16.055l-35.58,64.401l-25.955,45.73l0.112,0.153l0.274,0.375l0.272,0.376l0.272,0.376l0.27,0.377l0.27,0.378l0.269,0.378l0.267,0.379l0.267,0.379l0.265,0.38l0.265,0.381l0.263,0.381l0.262,0.381l0.262,0.383l0.26,0.383l0.259,0.383l0.259,0.384l0.257,0.385l0.256,0.385l0.255,0.386l0.255,0.386l0.253,0.387l0.252,0.387l0.251,0.388l0.25,0.389l0.249,0.389l0.248,0.39l0.247,0.39l0.246,0.391l0.245,0.391l0.244,0.392l0.243,0.392l0.242,0.393l0.24,0.394l0.24,0.394l0.239,0.394l0.237,0.395l0.237,0.396l0.236,0.396l0.234,0.397l0.234,0.397l0.232,0.397l0.232,0.399l0.23,0.398l0.229,0.399l0.229,0.4l0.227,0.4l0.226,0.401l0.225,0.401l0.225,0.402l0.223,0.402l0.222,0.403l0.221,0.403l0.22,0.404l0.219,0.404l0.217,0.405l0.217,0.405l0.216,0.405l0.215,0.407l0.213,0.406l0.213,0.407l0.212,0.408l0.21,0.408l0.21,0.408l0.208,0.409l0.208,0.41l0.206,0.409l0.205,0.411l0.204,0.41l0.204,0.412l0.202,0.411l0.201,0.413l0.2,0.412l0.199,0.413l0.198,0.414l0.196,0.414l0.196,0.414l0.195,0.415l0.194,0.415l0.192,0.416l0.192,0.416l0.19,0.416l0.19,0.417l0.188,0.418l0.187,0.417l0.187,0.419l0.185,0.418l0.184,0.419l0.183,0.42l0.182,0.42l0.181,0.42l0.18,0.421l0.179,0.421l0.178,0.421l0.176,0.422l0.176,0.422l0.174,0.423l0.174,0.423l0.172,0.424l0.172,0.424l0.17,0.424l0.169,0.425l0.147,0.371l0.021,0.054l0.163,0.427l0.163,0.427l0.161,0.427l0.16,0.428l0.16,0.429l0.158,0.428l0.157,0.429l0.156,0.43l0.155,0.429l0.153,0.43l0.153,0.431l0.152,0.43l0.15,0.431l0.15,0.432l0.148,0.431l0.147,0.432l0.147,0.433l0.145,0.433l0.144,0.433l0.143,0.433l0.142,0.434l0.141,0.434l0.139,0.434l0.139,0.435l0.137,0.434l0.137,0.436l0.135,0.435l0.135,0.436l0.133,0.436l0.132,0.437l0.131,0.436l0.13,0.438l0.129,0.437l0.127,0.438l0.127,0.437l0.126,0.439l0.124,0.438l0.124,0.439l0.122,0.439l0.121,0.439l0.12,0.44l0.119,0.44l0.118,0.44l0.117,0.441l0.116,0.44l0.114,0.441l0.114,0.442l0.112,0.441l0.112,0.442l0.11,0.442l0.109,0.442l0.108,0.443l0.107,0.443l0.106,0.443l0.105,0.443l0.103,0.444l0.103,0.444l0.101,0.444l0.101,0.444l0.099,0.444l0.098,0.445l0.097,0.445l0.096,0.446l0.095,0.445l0.094,0.446l0.092,0.446l0.092,0.446l0.09,0.446l0.09,0.447l0.088,0.447l0.087,0.447l0.086,0.447l0.085,0.447l0.084,0.448l0.082,0.448l0.082,0.448l0.08,0.448l0.08,0.449l0.078,0.448l0.077,0.449l0.076,0.449l0.075,0.449l0.074,0.45l0.073,0.45l0.071,0.449l0.071,0.45l0.069,0.451l0.068,0.45l0.067,0.451l0.066,0.45l0.065,0.451l0.064,0.451l0.063,0.451l0.061,0.452l0.061,0.451l0.059,0.452l0.058,0.452l0.057,0.452l0.056,0.452l0.055,0.453l0.054,0.452l0.052,0.453l0.052,0.453l0.05,0.453l0.049,0.453l0.048,0.453l0.047,0.453l0.046,0.454l0.045,0.454l0.043,0.453l0.043,0.454l0.041,0.454l0.04,0.455l0.039,0.454l0.038,0.454l0.037,0.455l0.036,0.455l0.034,0.454l0.034,0.455l0.032,0.455l0.031,0.455l0.016,0.241l0.012,0.215l0.025,0.455l0.024,0.456l0.023,0.456l0.021,0.456l0.02,0.456l0.02,0.456l0.018,0.456l0.017,0.456l0.015,0.456l0.015,0.457l0.014,0.456l0.012,0.456l0.011,0.457l0.01,0.456l0.009,0.457l0.008,0.457l0.007,0.456l0.005,0.457l0.005,0.457l0.003,0.457l0.002,0.457l0.001,0.457l0,0.457l-0.001,0.457l-0.003,0.457l-0.003,0.457l-0.005,0.457l-0.006,0.457l-0.007,0.457l-0.008,0.457l-0.009,0.458l-0.011,0.457l-0.012,0.457l-0.012,0.457l-0.014,0.458l-0.015,0.457l-0.016,0.457l-0.018,0.458l-0.018,0.457l-0.02,0.457l-0.021,0.457l-0.022,0.458l-0.023,0.457l-0.024,0.457l-0.025,0.458l-0.027,0.457l-0.028,0.457l-0.029,0.457l-0.03,0.457l-0.031,0.458l-0.032,0.457l-0.034,0.457l-0.034,0.457l-0.036,0.457l-0.037,0.457l-0.038,0.457l-0.04,0.457l-0.04,0.457l-0.042,0.457l-0.042,0.457l-0.044,0.457l-0.045,0.456l-0.047,0.457l-0.047,0.457l-0.049,0.456l-0.049,0.457l-0.051,0.456l-0.052,0.457l-0.053,0.456l-0.055,0.456l-0.055,0.457l-0.057,0.456l-0.058,0.456l-0.059,0.456l-0.06,0.456l-0.062,0.456l-0.062,0.455l-0.064,0.456l-0.065,0.456l-0.066,0.455l-0.067,0.455l-0.068,0.456l-0.07,0.455l-0.071,0.455l-0.072,0.455l-0.073,0.455l-0.074,0.455l-0.075,0.455l-0.077,0.454l-0.078,0.455l-0.078,0.454l-0.081,0.454l-0.081,0.454l-0.082,0.454l-0.084,0.454l-0.085,0.454l-0.086,0.454l-0.087,0.453l-0.088,0.453l-0.09,0.454l-0.09,0.453l-0.092,0.453l-0.093,0.453l-0.094,0.452l-0.096,0.453l-0.096,0.452l-0.098,0.452l-0.099,0.452l-0.1,0.452l-0.101,0.452l-0.103,0.452l-0.104,0.451l-0.104,0.451l-0.106,0.451l-0.108,0.451l-0.108,0.451l-0.11,0.45l-0.11,0.451l-0.112,0.45l-0.113,0.45l-0.115,0.45l-0.115,0.45l-0.117,0.449l-0.118,0.449l-0.119,0.449l-0.12,0.449l-0.121,0.449l-0.123,0.448l-0.124,0.449l-0.125,0.448l-0.126,0.448l-0.127,0.447l-0.129,0.448l-0.129,0.447l-0.131,0.447l-0.132,0.447l-0.134,0.446l-0.134,0.446l-0.136,0.446l-0.137,0.446l-0.138,0.446l-0.139,0.445l-0.141,0.445l-0.141,0.445l-0.143,0.445l-0.144,0.444l-0.145,0.445l-0.147,0.443l-0.147,0.444l-0.149,0.444l-0.15,0.443l-0.151,0.443l-0.153,0.442l-0.153,0.443l-0.155,0.442l-0.156,0.441l-0.157,0.442l-0.158,0.441l-0.16,0.441l-0.161,0.441l-0.162,0.44l-0.163,0.44l-0.164,0.44l-0.166,0.44l-0.166,0.439l-0.168,0.439l-0.169,0.439l-0.171,0.438l-0.171,0.438l-0.173,0.438l-0.174,0.437l-0.175,0.438l-0.176,0.436l-0.178,0.437l-0.179,0.436l-0.18,0.436l-0.181,0.436l-0.182,0.435l-0.184,0.435l-0.184,0.434l-0.186,0.434l-0.187,0.434l-0.189,0.434l-0.189,0.433l-0.191,0.433l-0.192,0.433l-0.193,0.432l-0.194,0.432l-0.196,0.431l-0.196,0.431l-0.198,0.431l-0.2,0.43l-0.2,0.43l-0.201,0.43l-0.203,0.429l-0.204,0.429l-0.205,0.429l-0.207,0.428l-0.207,0.428l-0.209,0.427l-0.21,0.427l-0.211,0.427l-0.212,0.426l-0.214,0.426l-0.215,0.426l-0.216,0.425l-0.217,0.424l-0.218,0.425l-0.22,0.424l-0.221,0.423l-0.222,0.423l-0.223,0.423l-0.224,0.422l-0.226,0.422l-0.227,0.421l-0.228,0.421l-0.229,0.421l-0.23,0.42l-0.232,0.42l-0.233,0.419l-0.234,0.419l-0.235,0.418l-0.236,0.418l-0.238,0.418l-0.239,0.417l-0.24,0.416l-0.241,0.417l-0.242,0.415l-0.244,0.416l-0.245,0.414l-0.246,0.415l-0.247,0.414l-0.249,0.413l-0.251,0.417l-0.3,0.492l-0.303,0.495l-0.305,0.493l-0.305,0.492l-0.308,0.491l-0.308,0.489l-0.31,0.488l-0.311,0.487l-0.313,0.485l-0.313,0.485l-0.316,0.482l-0.316,0.482l-0.318,0.48l-0.319,0.479l-0.32,0.478l-0.322,0.476l-0.323,0.475l-0.078,0.114l-0.249,0.358l-0.329,0.47l-0.331,0.468l-0.331,0.467l-0.333,0.466l-0.335,0.465l-0.335,0.463l-0.337,0.461l-0.338,0.461l-0.339,0.459l-0.34,0.458l-0.342,0.456l-0.343,0.455l-0.344,0.453l-0.345,0.453l-0.347,0.451l-0.347,0.449l-0.349,0.448l-0.35,0.447l-0.352,0.445l-0.352,0.444l-0.354,0.443l-0.355,0.441l-0.355,0.44l-0.358,0.439l-0.358,0.437l-0.359,0.435l-0.361,0.435l-0.362,0.433l-0.363,0.431l-0.364,0.43l-0.365,0.429l-0.367,0.428l-0.367,0.426l-0.369,0.424l-0.369,0.423l-0.371,0.422l-0.372,0.421l-0.373,0.419l-0.375,0.417l-0.375,0.417l-0.376,0.414l-0.378,0.414l-0.378,0.412l-0.38,0.411l-0.381,0.409l-0.381,0.408l-0.383,0.406l-0.384,0.405l-0.385,0.404l-0.386,0.402l-0.387,0.401l-0.389,0.399l-0.389,0.398l-0.39,0.396l-0.391,0.395l-0.393,0.394l-0.393,0.392l-0.394,0.391l-0.396,0.39l-0.396,0.388l-0.398,0.386l-0.398,0.385l-0.399,0.384l-0.401,0.382l-0.401,0.381l-0.403,0.38l-0.403,0.378l-0.405,0.376l-0.405,0.376l-0.406,0.373l-0.408,0.373l-0.408,0.37l-0.409,0.37l-0.41,0.368l-0.411,0.366l-0.412,0.366l-0.413,0.363l-0.414,0.362l-0.415,0.361l-0.416,0.36l-0.417,0.358l-0.418,0.356l-0.418,0.355l-0.42,0.354l-0.42,0.352l-0.421,0.351l-0.423,0.349l-0.423,0.348l-0.424,0.346l-0.425,0.345l-0.426,0.343l-0.426,0.342l-0.428,0.341l-0.428,0.339l-0.43,0.338l-0.43,0.336l-0.431,0.335l-0.432,0.333l-0.432,0.332l-0.434,0.33l-0.435,0.329l-0.435,0.328l-0.436,0.326l-0.437,0.324l-0.438,0.323l-0.438,0.322l-0.44,0.32l-0.44,0.319l-0.441,0.317l-0.442,0.316l-0.443,0.314l-0.443,0.313l-0.444,0.312l-0.445,0.31l-0.446,0.308l-0.447,0.307l-0.447,0.306l-0.448,0.304l-0.449,0.302l-0.45,0.302l-0.451,0.299l-0.451,0.298l-0.452,0.297l-0.453,0.295l-0.453,0.294l-0.454,0.292l-0.455,0.291l-0.456,0.29l-0.457,0.288l-0.457,0.286l-0.458,0.285l-0.458,0.283l-0.46,0.282l-0.46,0.281l-0.461,0.279l-0.461,0.277l-0.462,0.277l-0.463,0.274l-0.464,0.273l-0.464,0.272l-0.465,0.27l-0.466,0.269l-0.466,0.267l-0.467,0.265l-0.468,0.265l-0.468,0.262l-0.469,0.262l-0.47,0.259l-0.47,0.259l-0.471,0.256l-0.471,0.256l-0.473,0.254l-0.473,0.252l-0.473,0.251l-0.474,0.249l-0.475,0.248l-0.475,0.246l-0.476,0.245l-0.477,0.243l-0.477,0.242l-0.478,0.241l-0.479,0.239l-0.479,0.237l-0.479,0.236l-0.481,0.234l-0.481,0.233l-0.481,0.232l-0.482,0.23l-0.483,0.228l-0.483,0.227l-0.484,0.225l-0.484,0.224l-0.485,0.223l-0.485,0.221l-0.486,0.219l-0.487,0.218l-0.487,0.216l-0.488,0.215l-0.488,0.214l-0.489,0.212l-0.489,0.21l-0.49,0.209l-0.49,0.207l-0.491,0.206l-0.491,0.205l-0.492,0.203l-0.492,0.201l-0.493,0.2l-0.494,0.198l-0.494,0.197l-0.494,0.195l-0.495,0.194l-0.495,0.193l-0.496,0.19l-0.497,0.19l-0.497,0.187l-0.497,0.187l-0.498,0.184l-0.498,0.184l-0.499,0.181l-0.499,0.181l-0.499,0.178l-0.501,0.178l-0.5,0.175l-0.501,0.174l-0.502,0.173l-0.501,0.171l-0.503,0.17l-0.502,0.168l-0.504,0.166l-0.503,0.165l-0.504,0.164l-0.505,0.162l-0.505,0.161l-0.505,0.158l-0.505,0.158l-0.507,0.156l-0.506,0.154l-0.507,0.153l-0.507,0.151l-0.508,0.15l-0.508,0.149l-0.508,0.146l-0.018,0.005l-0.492,0.138l-0.51,0.141l-0.51,0.14l-0.511,0.138l-0.511,0.137l-0.511,0.135l-0.512,0.134l-0.512,0.132l-0.512,0.13l-0.513,0.129l-0.513,0.128l-0.513,0.126l-0.513,0.124l-0.514,0.123l-0.515,0.121l-0.514,0.12l-0.515,0.118l-0.515,0.117l-0.516,0.115l-0.516,0.114l-0.516,0.112l-0.516,0.111l-0.517,0.109l-0.516,0.107l-0.518,0.106l-0.517,0.104l-0.518,0.103l-0.518,0.102l-0.518,0.099l-0.519,0.099l-0.518,0.096l-0.519,0.095l-0.52,0.094l-0.519,0.092l-0.52,0.09l-0.52,0.089l-0.52,0.088l-0.521,0.086l-0.52,0.084l-0.521,0.083l-0.521,0.081l-0.522,0.079l-0.521,0.078l-0.522,0.077l-0.522,0.075l-0.522,0.073l-0.523,0.072l-0.522,0.07l-0.523,0.069l-0.523,0.067l-0.523,0.066l-0.524,0.064l-0.523,0.063l-0.524,0.061l-0.524,0.059l-0.524,0.058l-0.524,0.056l-0.524,0.055l-0.525,0.053l-0.524,0.052l-0.525,0.05l-0.525,0.048l-0.525,0.047l-0.525,0.045l-0.526,0.044l-0.525,0.042l-0.526,0.041l-0.525,0.039l-0.526,0.038l-0.526,0.036l-0.526,0.034l-0.526,0.033l-0.527,0.031l-0.526,0.03l-0.527,0.028l-0.526,0.026l-0.527,0.025l-0.527,0.024l-0.527,0.021l-0.527,0.021l-0.527,0.018l-0.527,0.017l-0.527,0.016l-0.527,0.014l-0.527,0.012l-0.528,0.011l-0.527,0.009l-0.528,0.008l-0.527,0.006l-0.528,0.004l-0.527,0.003l-0.528,0.001l-0.528,0l-0.527,-0.002l-0.528,-0.003l-0.528,-0.006l-0.527,-0.006l-0.528,-0.008l-0.528,-0.01l-0.528,-0.012l-0.528,-0.013l-0.527,-0.014l-0.528,-0.016l-0.528,-0.018l-0.528,-0.019l-0.528,-0.021l-0.527,-0.023l-0.528,-0.024l-0.528,-0.026l-0.527,-0.027l-0.528,-0.029l-0.528,-0.03l-0.527,-0.032l-0.528,-0.034l-0.527,-0.035l-0.528,-0.037l-0.527,-0.039l-0.528,-0.04l-0.527,-0.041l-0.527,-0.044l-0.527,-0.045l-0.527,-0.046l-0.527,-0.048l-0.527,-0.05l-0.527,-0.051l-0.527,-0.053l-0.526,-0.054l-0.527,-0.057l-0.526,-0.057l-0.527,-0.06l-0.526,-0.06l-0.526,-0.063l-0.526,-0.064l-0.526,-0.066l-0.526,-0.067l-0.525,-0.069l-0.526,-0.071l-0.525,-0.072l-0.526,-0.074l-0.525,-0.075l-0.525,-0.077l-0.525,-0.079l-0.524,-0.08l-0.525,-0.082l-0.524,-0.083l-0.524,-0.085l-0.524,-0.087l-0.524,-0.088l-0.524,-0.09l-0.523,-0.092l-0.524,-0.093l-0.523,-0.095l-0.523,-0.096l-0.523,-0.098l-0.522,-0.1l-0.523,-0.101l-0.522,-0.103l-0.522,-0.104l-0.522,-0.107l-0.521,-0.107l-0.521,-0.11l-0.522,-0.111l-0.52,-0.112l-0.521,-0.115l-0.52,-0.116l-0.521,-0.117l-0.52,-0.119l-0.519,-0.121l-0.52,-0.122l-0.519,-0.124l-0.519,-0.126l-0.518,-0.127l-0.519,-0.129l-0.518,-0.131l-0.518,-0.132l-0.517,-0.134l-0.518,-0.135l-0.517,-0.137l-0.516,-0.139l-0.517,-0.14l-0.516,-0.142l-0.516,-0.144l-0.515,-0.145l-0.516,-0.147l-0.515,-0.149l-0.514,-0.15l-0.514,-0.152l-0.514,-0.153l-0.514,-0.155l-0.513,-0.157l-0.513,-0.158l-0.513,-0.16l-0.512,-0.162l-0.512,-0.163l-0.512,-0.165l-0.511,-0.167l-0.511,-0.168l-0.51,-0.17l-0.51,-0.171l-0.51,-0.174l-0.509,-0.174l-0.509,-0.177l-0.509,-0.178l-0.508,-0.18l-0.508,-0.181l-0.508,-0.183l-0.507,-0.185l-0.506,-0.186l-0.507,-0.188l-0.505,-0.189l-0.506,-0.192l-0.505,-0.193l-0.504,-0.194l-0.505,-0.196l-0.503,-0.198l-0.504,-0.2l-0.502,-0.201l-0.503,-0.203l-0.502,-0.204l-0.143,-0.059l-0.358,-0.149l-0.5,-0.21l-0.5,-0.211l-0.499,-0.213l-0.499,-0.215l-0.498,-0.217l-0.498,-0.218l-0.497,-0.22l-0.497,-0.221l-0.496,-0.223l-0.496,-0.225l-0.496,-0.226l-0.494,-0.228l-0.495,-0.23l-0.493,-0.231l-0.494,-0.233l-0.492,-0.235l-0.493,-0.236l-0.491,-0.238l-0.491,-0.24l-0.491,-0.241l-0.49,-0.243l-0.49,-0.244l-0.489,-0.246l-0.488,-0.248l-0.488,-0.249l-0.487,-0.252l-0.487,-0.252l-0.486,-0.255l-0.485,-0.256l-0.485,-0.257l-0.485,-0.26l-0.484,-0.261l-0.483,-0.262l-0.482,-0.265l-0.482,-0.265l-0.482,-0.268l-0.48,-0.269l-0.481,-0.271l-0.479,-0.273l-0.479,-0.274l-0.478,-0.276l-0.478,-0.277l-0.477,-0.279l-0.476,-0.281l-0.476,-0.282l-0.475,-0.284l-0.475,-0.286l-0.474,-0.287l-0.473,-0.289l-0.472,-0.291l-0.476,-0.294l-0.587,-0.367l-0.588,-0.371l-0.587,-0.372l-0.584,-0.375l-0.582,-0.377l-0.581,-0.378l-0.578,-0.381l-0.577,-0.382l-0.574,-0.384l-0.572,-0.387l-0.57,-0.388l-0.569,-0.39l-0.566,-0.392l-0.564,-0.394l-0.562,-0.395l-0.56,-0.398l-0.558,-0.399l-0.556,-0.402l-0.554,-0.403l-0.551,-0.405l-0.55,-0.407l-0.548,-0.408l-0.545,-0.411l-0.544,-0.412l-0.541,-0.414l-0.54,-0.416l-0.537,-0.418l-0.535,-0.419l-0.533,-0.422l-0.531,-0.422l-0.529,-0.425l-0.527,-0.427l-0.525,-0.428l-0.523,-0.43l-0.52,-0.432l-0.519,-0.433l-0.516,-0.435l-0.515,-0.437l-0.512,-0.438l-0.51,-0.44l-0.508,-0.442l-0.506,-0.444l-0.504,-0.445l-0.502,-0.447l-0.499,-0.448l-0.498,-0.45l-0.495,-0.452l-0.493,-0.453l-0.491,-0.455l-0.489,-0.457l-0.487,-0.458l-0.485,-0.46l-0.483,-0.461l-0.48,-0.463l-0.479,-0.464l-0.476,-0.466l-0.474,-0.468l-0.472,-0.469l-0.47,-0.47l-0.468,-0.472l-0.465,-0.474l-0.464,-0.475l-0.461,-0.477l-0.459,-0.478l-0.457,-0.48l-0.455,-0.481l-0.453,-0.482l-0.451,-0.484l-0.448,-0.486l-0.446,-0.487l-0.444,-0.488l-0.442,-0.49l-0.44,-0.491l-0.438,-0.493l-0.435,-0.494l-0.434,-0.496l-0.431,-0.496l-0.429,-0.499l-0.427,-0.499l-0.424,-0.501l-0.423,-0.503l-0.42,-0.503l-0.419,-0.505l-0.416,-0.507l-0.413,-0.507l-0.412,-0.51l-0.41,-0.51l-0.407,-0.512l-0.405,-0.513l-0.403,-0.514l-0.401,-0.515l-0.398,-0.517l-0.397,-0.518l-0.394,-0.52l-0.392,-0.52l-0.39,-0.522l-0.388,-0.523l-0.385,-0.525l-0.383,-0.525l-0.381,-0.527l-0.379,-0.528l-0.377,-0.529l-0.375,-0.531l-0.372,-0.531l-0.37,-0.533l-0.368,-0.534l-0.366,-0.535l-0.363,-0.536l-0.362,-0.538l-0.359,-0.538l-0.357,-0.54l-0.354,-0.541l-0.353,-0.542l-0.35,-0.543l-0.348,-0.544l-0.346,-0.545l-0.344,-0.547l-0.342,-0.547l-0.339,-0.549l-0.337,-0.549l-0.335,-0.551l-0.332,-0.552l-0.331,-0.552l-0.328,-0.554l-0.326,-0.555l-0.324,-0.556l-0.321,-0.557l-6.059,-9.929l36.668,-59.467l32.29,-52.352l-0.078,-0.087l-0.281,-0.314l-0.28,-0.315l-0.28,-0.315l-0.278,-0.316l-0.278,-0.317l-0.277,-0.317l-0.276,-0.318l-0.275,-0.319l-0.274,-0.319l-0.273,-0.32l-0.273,-0.321l-0.271,-0.321l-0.271,-0.322l-0.27,-0.322l-0.269,-0.323l-0.268,-0.324l-0.268,-0.324l-0.266,-0.325l-0.266,-0.326l-0.265,-0.326l-0.263,-0.327l-0.263,-0.327l-0.263,-0.328l-0.261,-0.329l-0.26,-0.329l-0.26,-0.33l-0.258,-0.33l-0.258,-0.331l-0.257,-0.332l-0.256,-0.332l-0.255,-0.333l-0.255,-0.334l-0.253,-0.334l-0.253,-0.334l-0.251,-0.336l-0.251,-0.336l-0.25,-0.336l-0.249,-0.337l-0.248,-0.338l-0.247,-0.338l-0.247,-0.338l-0.245,-0.34l-0.245,-0.34l-0.243,-0.34l-0.243,-0.341l-0.242,-0.342l-0.241,-0.342l-0.24,-0.343l-0.24,-0.343l-0.238,-0.344l-0.238,-0.344l-0.236,-0.345l-0.236,-0.346l-0.235,-0.346l-0.234,-0.347l-0.233,-0.347l-0.232,-0.348l-0.231,-0.348l-0.231,-0.349l-0.229,-0.349l-0.229,-0.35l-0.227,-0.351l-0.227,-0.351l-0.226,-0.351l-0.225,-0.352l-0.224,-0.353l-0.223,-0.353l-0.223,-0.354l-0.221,-0.354l-0.221,-0.355l-0.219,-0.355l-0.219,-0.356l-0.218,-0.356l-0.217,-0.357l-0.215,-0.357l-0.216,-0.358l-0.214,-0.358l-0.213,-0.359l-0.212,-0.359l-0.212,-0.36l-0.21,-0.36l-0.21,-0.361l-0.209,-0.362l-0.207,-0.361l-0.207,-0.363l-0.206,-0.363l-0.205,-0.363l-0.205,-0.364l-0.203,-0.364l-0.202,-0.365l-0.201,-0.365l-0.201,-0.366l-0.2,-0.366l-0.198,-0.367l-0.198,-0.367l-0.197,-0.368l-0.196,-0.368l-0.195,-0.368l-0.194,-0.37l-0.193,-0.369l-0.192,-0.37l-0.191,-0.371l-0.191,-0.371l-0.189,-0.371l-0.189,-0.372l-0.187,-0.372l-0.187,-0.373l-0.186,-0.373l-0.184,-0.374l-0.184,-0.374l-0.183,-0.374l-0.182,-0.375l-0.181,-0.376l-0.181,-0.376l-0.179,-0.376l-0.178,-0.377l-0.177,-0.377l-0.177,-0.378l-0.175,-0.378l-0.175,-0.378l-0.174,-0.379l-0.172,-0.38l-0.172,-0.379l-0.171,-0.381l-0.17,-0.38l-0.169,-0.381l-0.168,-0.382l-0.167,-0.382l-0.166,-0.382l-0.165,-0.383l-0.164,-0.383l-0.163,-0.383l-0.163,-0.384l-0.161,-0.384l-0.161,-0.385l-0.159,-0.385l-0.159,-0.386l-0.157,-0.386l-0.157,-0.386l-0.156,-0.387l-0.154,-0.387l-0.154,-0.387l-0.153,-0.388l-0.152,-0.389l-0.151,-0.388l-0.15,-0.389l-0.149,-0.39l-0.148,-0.389l-0.147,-0.391l-0.147,-0.39l-0.145,-0.391l-0.144,-0.391l-0.143,-0.392l-0.143,-0.392l-0.141,-0.392l-0.141,-0.393l-0.139,-0.393l-0.139,-0.394l-0.137,-0.394l-0.137,-0.394l-0.135,-0.394l-0.135,-0.395l-0.134,-0.395l-0.132,-0.396l-0.132,-0.396l-0.131,-0.396l-0.13,-0.397l-0.129,-0.397l-0.128,-0.397l-0.127,-0.398l-0.126,-0.398l-0.125,-0.398l-0.124,-0.399l-0.123,-0.399l-0.122,-0.399l-0.121,-0.4l-0.12,-0.4l-0.119,-0.4l-0.118,-0.4l-0.117,-0.401l-0.117,-0.402l-0.115,-0.401l-0.114,-0.402l-0.114,-0.402l-0.112,-0.403l-0.111,-0.402l-0.11,-0.403l-0.11,-0.404l-0.108,-0.404l-0.108,-0.404l-0.106,-0.404l-0.105,-0.404l-0.105,-0.405l-0.103,-0.406l-0.103,-0.405l-0.101,-0.406l-0.101,-0.406l-0.099,-0.406l-0.099,-0.407l-0.097,-0.407l-0.097,-0.407l-0.095,-0.407l-0.095,-0.408l-0.093,-0.408l-0.093,-0.408l-0.092,-0.409l-0.09,-0.409l-0.09,-0.409l-0.088,-0.409l-0.088,-0.41l-0.086,-0.41l-0.086,-0.41l-0.085,-0.41l-0.083,-0.411l-0.083,-0.411l-0.081,-0.411l-0.081,-0.412l-0.079,-0.411l-0.079,-0.412l-0.078,-0.412l-0.076,-0.413l-0.076,-0.412l-0.074,-0.413l-0.074,-0.413l-0.072,-0.414l-0.072,-0.413l-0.07,-0.414l-0.07,-0.414l-0.068,-0.414l-0.068,-0.415l-0.066,-0.415l-0.065,-0.415l-0.065,-0.415l-0.063,-0.415l-0.063,-0.416l-0.061,-0.416l-0.06,-0.416l-0.06,-0.416l-0.058,-0.416l-0.057,-0.417l-0.056,-0.417l-0.056,-0.417l-0.054,-0.417l-0.053,-0.418l-0.052,-0.418l-0.051,-0.417l-0.05,-0.418l-0.05,-0.419l-0.048,-0.418l-0.047,-0.419l-0.046,-0.419l-0.045,-0.419l-0.043,-0.419l-0.043,-0.419l-0.042,-0.42l-0.041,-0.42l-0.04,-0.419l-0.039,-0.421l-0.037,-0.42l-0.037,-0.42l-0.036,-0.421l-0.034,-0.421l-0.034,-0.421l-0.033,-0.421l-0.031,-0.421l-0.031,-0.421l-0.029,-0.422l-0.028,-0.422l-0.028,-0.421l-0.026,-0.422l-0.025,-0.423l-0.024,-0.422l-0.024,-0.422l-0.022,-0.423l-0.021,-0.423l-0.02,-0.423l-0.019,-0.423l-0.018,-0.423l-0.017,-0.423l-0.015,-0.424l-0.015,-0.423l-0.014,-0.424l-0.012,-0.424l-0.012,-0.424l-0.011,-0.424l-0.009,-0.424l-0.009,-0.424l-0.007,-0.425l-0.006,-0.424l-0.005,-0.425l-0.005,-0.424l-0.003,-0.425l-0.002,-0.425l-0.001,-0.425l0,-0.426l0.001,-0.425l0.003,-0.425l0.003,-0.426l0.004,-0.425l0.006,-0.426l0.006,-0.426l0.008,-0.425l0.008,-0.426l0.01,-0.426l0.011,-0.427l0.011,-0.426l0.013,-0.426l0.014,-0.426l0.015,-0.427l0.016,-0.426l0.018,-0.427l0.018,-0.426l0.019,-0.427l0.021,-0.427l0.021,-0.427l0.023,-0.426l0.023,-0.427l0.025,-0.427l0.026,-0.427l0.027,-0.428l0.028,-0.427l0.029,-0.427l0.03,-0.427l0.031,-0.427l0.033,-0.428l0.033,-0.427l0.035,-0.428l0.035,-0.427l0.037,-0.427l0.009,-0.096l0.03,-0.332l0.041,-0.427l0.041,-0.428l0.043,-0.427l0.043,-0.427l0.045,-0.428l0.046,-0.427l0.047,-0.428l0.048,-0.427l0.049,-0.428l0.051,-0.427l0.051,-0.428l0.053,-0.427l0.053,-0.428l0.055,-0.427l0.056,-0.428l0.057,-0.427l0.058,-0.427l0.059,-0.428l0.06,-0.427l0.062,-0.428l0.062,-0.427l0.064,-0.428l0.064,-0.427l0.066,-0.427l0.067,-0.427l0.068,-0.428l0.069,-0.427l0.071,-0.427l0.071,-0.427l0.072,-0.427l0.074,-0.428l0.075,-0.427l0.076,-0.427l0.077,-0.427l0.078,-0.427l0.079,-0.426l0.08,-0.427l0.082,-0.427l0.082,-0.427l0.084,-0.426l0.085,-0.427l0.086,-0.426l0.087,-0.427l0.088,-0.426l0.089,-0.427l0.091,-0.426l0.091,-0.426l0.093,-0.426l0.094,-0.426l0.095,-0.426l0.096,-0.426l0.097,-0.426l0.099,-0.425l0.099,-0.426l0.101,-0.426l0.101,-0.425l0.103,-0.425l0.104,-0.425l0.106,-0.426l0.106,-0.425l0.107,-0.425l0.109,-0.424l0.11,-0.425l0.111,-0.425l0.112,-0.424l0.113,-0.425l0.114,-0.424l0.116,-0.424l0.116,-0.424l0.118,-0.424l0.119,-0.424l0.12,-0.423l0.121,-0.424l0.123,-0.423l0.123,-0.423l0.125,-0.423l0.125,-0.423l0.127,-0.423l0.129,-0.423l0.129,-0.422l0.13,-0.423l0.132,-0.422l0.132,-0.422l0.134,-0.422l0.135,-0.422l0.137,-0.422l0.137,-0.421l0.138,-0.421l0.14,-0.421l0.141,-0.421l0.142,-0.421l0.143,-0.421l0.144,-0.42l0.146,-0.42l0.146,-0.421l0.148,-0.419l0.149,-0.42l0.15,-0.42l0.151,-0.419l0.153,-0.419l0.154,-0.419l0.154,-0.419l0.156,-0.418l0.157,-0.419l0.159,-0.418l0.159,-0.418l0.161,-0.418l0.161,-0.417l0.163,-0.418l0.165,-0.417l0.165,-0.417l0.166,-0.416l0.168,-0.417l0.169,-0.416l0.17,-0.416l0.171,-0.416l0.172,-0.415l0.174,-0.416l0.175,-0.415l0.176,-0.415l0.177,-0.414l0.178,-0.415l0.179,-0.414l0.181,-0.414l0.182,-0.413l0.183,-0.414l0.184,-0.413l0.185,-0.413l0.187,-0.412l0.187,-0.413l0.189,-0.412l0.19,-0.412l0.192,-0.411l0.192,-0.412l0.194,-0.411l0.195,-0.411l0.196,-0.41l0.197,-0.41l0.198,-0.41l0.2,-0.41l0.2,-0.409l0.202,-0.409l0.203,-0.409l0.205,-0.409l0.205,-0.408l0.207,-0.408l0.208,-0.407l0.209,-0.408l0.21,-0.407l0.212,-0.406l0.213,-0.407l0.213,-0.406l0.215,-0.405l0.217,-0.406l0.219,-0.407l0.261,-0.485l0.265,-0.485l0.265,-0.485l0.268,-0.483l0.268,-0.482l0.27,-0.481l0.271,-0.48l0.273,-0.479l0.274,-0.478l0.276,-0.477l0.276,-0.475l0.278,-0.475l0.28,-0.473l0.281,-0.472l0.282,-0.471l0.283,-0.47l0.285,-0.469l0.286,-0.467l0.288,-0.467l0.289,-0.465l0.29,-0.464l0.291,-0.464l0.293,-0.462l0.294,-0.46l0.296,-0.46l0.297,-0.459l0.298,-0.457l0.299,-0.456l0.301,-0.455l0.301,-0.454l0.304,-0.453l0.304,-0.451l0.306,-0.451l0.307,-0.449l0.308,-0.448l0.31,-0.447l0.311,-0.446l0.312,-0.444l0.313,-0.444l0.315,-0.442l0.316,-0.441l0.317,-0.44l0.319,-0.439l0.319,-0.437l0.321,-0.437l0.322,-0.435l0.324,-0.434l0.324,-0.433l0.326,-0.431l0.327,-0.431l0.328,-0.429l0.33,-0.428l0.331,-0.427l0.332,-0.425l0.333,-0.425l0.334,-0.423l0.335,-0.422l0.337,-0.421l0.338,-0.42l0.339,-0.418l0.34,-0.417l0.342,-0.416l0.343,-0.415l0.343,-0.414l0.345,-0.412l0.346,-0.411l0.348,-0.41l0.348,-0.409l0.35,-0.407l0.351,-0.406l0.351,-0.405l0.353,-0.404l0.355,-0.403l0.355,-0.401l0.356,-0.4l0.358,-0.399l0.359,-0.398l0.36,-0.396l0.361,-0.395l0.362,-0.394l0.363,-0.393l0.364,-0.391l0.366,-0.39l0.366,-0.389l0.368,-0.388l0.368,-0.386l0.37,-0.386l0.371,-0.383l0.372,-0.383l0.373,-0.382l0.374,-0.38l0.375,-0.379l0.377,-0.377l0.377,-0.377l0.378,-0.375l0.38,-0.374l0.38,-0.372l0.382,-0.371l0.382,-0.37l0.384,-0.369l0.385,-0.368l0.385,-0.366l0.387,-0.365l0.388,-0.364l0.389,-0.362l0.39,-0.361l0.39,-0.36l0.392,-0.358l0.393,-0.358l0.394,-0.356l0.395,-0.354l0.396,-0.354l0.397,-0.352l0.398,-0.351l0.399,-0.349l0.399,-0.348l0.401,-0.347l0.402,-0.346l0.403,-0.344l0.404,-0.343l0.404,-0.342l0.406,-0.34l0.407,-0.34l0.407,-0.337l0.409,-0.337l0.41,-0.335l0.41,-0.334l0.411,-0.333l0.413,-0.331l0.413,-0.33l0.414,-0.328l0.416,-0.328l0.416,-0.326l0.417,-0.324l0.418,-0.324l0.418,-0.322l0.42,-0.321l0.421,-0.319l0.421,-0.318l0.423,-0.317l0.423,-0.315l0.425,-0.314l0.425,-0.313l0.426,-0.311l0.427,-0.31l0.428,-0.309l0.428,-0.308l0.43,-0.306l0.43,-0.304l0.432,-0.304l0.432,-0.302l0.433,-0.301l0.434,-0.299l0.435,-0.298l0.435,-0.297l0.437,-0.295l0.437,-0.294l0.438,-0.292l0.439,-0.292l0.44,-0.29l0.44,-0.288l0.442,-0.287l0.442,-0.286l0.443,-0.285l0.444,-0.283l0.445,-0.282l0.445,-0.28l0.447,-0.279l0.447,-0.278l0.448,-0.276l0.449,-0.275l0.449,-0.273l0.45,-0.273l0.451,-0.27l0.452,-0.27l0.453,-0.268l0.453,-0.267l0.455,-0.265l0.455,-0.264l0.455,-0.262l0.457,-0.262l0.457,-0.259l0.458,-0.259l0.459,-0.257l0.459,-0.255l0.46,-0.255l0.461,-0.253l0.462,-0.251l0.462,-0.25l0.464,-0.249l0.464,-0.247l0.464,-0.246l0.465,-0.244l0.467,-0.244l0.466,-0.241l0.468,-0.241l0.468,-0.238l0.469,-0.238l0.469,-0.236l0.471,-0.235l0.471,-0.233l0.471,-0.232l0.473,-0.23l0.473,-0.229l0.473,-0.228l0.475,-0.226l0.475,-0.225l0.475,-0.224l0.477,-0.222l0.477,-0.22l0.478,-0.219l0.478,-0.218l0.479,-0.216l0.48,-0.215l0.48,-0.214l0.481,-0.212l0.481,-0.21l0.483,-0.21l0.482,-0.207l0.484,-0.207l0.484,-0.204l0.485,-0.204l0.485,-0.202l0.486,-0.201l0.486,-0.199l0.488,-0.197l0.487,-0.197l0.489,-0.194l0.489,-0.194l0.489,-0.192l0.49,-0.19l0.491,-0.189l0.184,-0.07l0.308,-0.116l0.493,-0.184l0.493,-0.182l0.494,-0.18l0.495,-0.179l0.495,-0.178l0.495,-0.176l0.497,-0.175l0.496,-0.173l0.497,-0.172l0.498,-0.17l0.499,-0.169l0.498,-0.167l0.5,-0.166l0.5,-0.164l0.5,-0.163l0.501,-0.161l0.501,-0.16l0.502,-0.159l0.503,-0.157l0.503,-0.155l0.503,-0.154l0.504,-0.153l0.504,-0.151l0.505,-0.15l0.506,-0.148l0.505,-0.146l0.507,-0.145l0.507,-0.144l0.507,-0.142l0.508,-0.141l0.508,-0.139l0.509,-0.138l0.509,-0.136l0.509,-0.134l0.51,-0.134l0.511,-0.131l0.511,-0.13l0.511,-0.129l0.512,-0.127l0.512,-0.126l0.513,-0.124l0.513,-0.122l0.514,-0.122l0.514,-0.119l0.514,-0.118l0.515,-0.117l0.515,-0.115l0.515,-0.113l0.516,-0.112l0.517,-0.111l0.517,-0.109l0.517,-0.107l0.517,-0.106l0.518,-0.105l0.519,-0.102l0.519,-0.102l0.519,-0.1l0.519,-0.098l0.52,-0.097l0.52,-0.095l0.521,-0.094l0.521,-0.092l0.521,-0.09l0.522,-0.089l0.522,-0.088l0.522,-0.086l0.523,-0.084l0.523,-0.083l0.523,-0.082l0.524,-0.079l0.524,-0.079l0.524,-0.076l0.525,-0.075l0.525,-0.074l0.525,-0.072l0.526,-0.071l0.526,-0.069l0.526,-0.067l0.526,-0.066l0.527,-0.064l0.527,-0.063l0.528,-0.061l0.528,-0.059l0.528,-0.058l0.528,-0.057l0.528,-0.055l0.529,-0.053l0.529,-0.052l0.53,-0.05l0.529,-0.049l0.53,-0.047l0.53,-0.045l0.531,-0.044l0.53,-0.042l0.531,-0.041l0.531,-0.039l0.532,-0.037l0.531,-0.036l0.532,-0.035l0.532,-0.032l0.532,-0.031l0.533,-0.03l0.532,-0.028l0.533,-0.026l0.534,-0.025l0.533,-0.023l0.533,-0.022l0.534,-0.02l0.534,-0.018l0.534,-0.017l0.535,-0.015l0.534,-0.014l0.535,-0.012l0.535,-0.01l0.535,-0.009l0.535,-0.007l0.535,-0.005l0.536,-0.004l0.536,-0.003l0.535,0l0.536,0.001Zm-6.303,26.206l-0.456,0.002l-0.455,0.004l-0.455,0.006l-0.455,0.007l-0.455,0.008l-0.455,0.01l-0.454,0.011l-0.455,0.012l-0.454,0.014l-0.455,0.015l-0.454,0.016l-0.454,0.018l-0.454,0.019l-0.454,0.021l-0.454,0.021l-0.454,0.024l-0.453,0.024l-0.454,0.026l-0.453,0.028l-0.453,0.028l-0.453,0.03l-0.453,0.032l-0.453,0.033l-0.453,0.034l-0.452,0.035l-0.452,0.037l-0.453,0.038l-0.452,0.04l-0.451,0.04l-0.452,0.043l-0.452,0.043l-0.451,0.045l-0.451,0.046l-0.451,0.048l-0.451,0.049l-0.45,0.05l-0.451,0.052l-0.45,0.053l-0.45,0.054l-0.45,0.056l-0.449,0.057l-0.45,0.058l-0.449,0.06l-0.449,0.061l-0.448,0.062l-0.449,0.064l-0.448,0.065l-0.448,0.066l-0.448,0.068l-0.448,0.069l-0.447,0.071l-0.447,0.071l-0.447,0.073l-0.447,0.075l-0.446,0.075l-0.447,0.077l-0.445,0.079l-0.446,0.079l-0.446,0.081l-0.445,0.083l-0.445,0.083l-0.444,0.085l-0.444,0.087l-0.444,0.087l-0.444,0.089l-0.444,0.09l-0.443,0.092l-0.443,0.093l-0.443,0.094l-0.442,0.095l-0.442,0.097l-0.442,0.098l-0.441,0.1l-0.441,0.101l-0.441,0.102l-0.44,0.103l-0.441,0.105l-0.439,0.106l-0.44,0.107l-0.439,0.109l-0.439,0.11l-0.439,0.111l-0.438,0.112l-0.438,0.114l-0.437,0.115l-0.437,0.117l-0.437,0.118l-0.437,0.119l-0.436,0.12l-0.436,0.122l-0.435,0.123l-0.435,0.124l-0.435,0.125l-0.434,0.127l-0.434,0.128l-0.434,0.13l-0.433,0.13l-0.433,0.132l-0.432,0.134l-0.432,0.134l-0.432,0.136l-0.431,0.137l-0.431,0.139l-0.43,0.14l-0.43,0.141l-0.43,0.142l-0.429,0.143l-0.429,0.145l-0.428,0.147l-0.428,0.147l-0.427,0.149l-0.428,0.15l-0.426,0.151l-0.426,0.153l-0.426,0.153l-0.426,0.155l-0.424,0.157l-0.425,0.158l-0.424,0.158l-0.423,0.161l-0.424,0.161l-0.422,0.163l-0.422,0.164l-0.422,0.165l-0.421,0.167l-0.421,0.168l-0.42,0.169l-0.42,0.17l-0.419,0.172l-0.419,0.173l-0.419,0.174l-0.418,0.175l-0.417,0.177l-0.417,0.178l-0.416,0.179l-0.416,0.181l-0.415,0.181l-0.415,0.183l-0.415,0.184l-0.413,0.186l-0.414,0.187l-0.412,0.188l-0.413,0.189l-0.411,0.19l-0.412,0.192l-0.41,0.193l-0.41,0.195l-0.41,0.195l-0.409,0.197l-0.408,0.198l-0.408,0.199l-0.408,0.201l-0.406,0.201l-0.407,0.203l-0.405,0.205l-0.406,0.205l-0.404,0.207l-0.404,0.208l-0.403,0.209l-0.403,0.21l-0.403,0.212l-0.401,0.213l-0.401,0.214l-0.401,0.216l-0.4,0.216l-0.399,0.218l-0.398,0.219l-0.399,0.22l-0.397,0.222l-0.397,0.223l-0.396,0.224l-0.396,0.225l-0.395,0.227l-0.394,0.227l-0.394,0.229l-0.393,0.23l-0.392,0.232l-0.392,0.232l-0.391,0.234l-0.391,0.235l-0.39,0.236l-0.389,0.238l-0.389,0.239l-0.388,0.24l-0.387,0.241l-0.387,0.242l-0.385,0.244l-0.386,0.244l-0.384,0.246l-0.384,0.248l-0.384,0.248l-0.382,0.25l-0.382,0.251l-0.381,0.252l-0.381,0.253l-0.38,0.254l-0.379,0.256l-0.378,0.257l-0.378,0.258l-0.377,0.26l-0.376,0.26l-0.376,0.262l-0.375,0.263l-0.374,0.264l-0.373,0.265l-0.373,0.267l-0.372,0.267l-0.371,0.269l-0.371,0.27l-0.369,0.272l-0.369,0.272l-0.369,0.274l-0.367,0.275l-0.367,0.276l-0.366,0.277l-0.365,0.279l-0.365,0.279l-0.364,0.281l-0.363,0.282l-0.362,0.284l-0.361,0.284l-0.361,0.286l-0.36,0.286l-0.359,0.288l-0.358,0.29l-0.358,0.29l-0.356,0.291l-0.356,0.293l-0.356,0.294l-0.354,0.295l-0.353,0.296l-0.353,0.298l-0.352,0.298l-0.351,0.3l-0.35,0.301l-0.35,0.302l-0.348,0.304l-0.348,0.304l-0.347,0.306l-0.346,0.307l-0.346,0.308l-0.344,0.309l-0.344,0.31l-0.342,0.312l-0.342,0.312l-0.341,0.314l-0.341,0.315l-0.339,0.316l-0.339,0.318l-0.337,0.318l-0.337,0.32l-0.336,0.321l-0.335,0.322l-0.334,0.323l-0.333,0.324l-0.333,0.326l-0.331,0.326l-0.331,0.328l-0.329,0.329l-0.329,0.33l-0.328,0.331l-0.327,0.332l-0.326,0.334l-0.325,0.335l-0.325,0.336l-0.323,0.337l-0.322,0.338l-0.322,0.339l-0.32,0.34l-0.32,0.342l-0.319,0.343l-0.318,0.344l-0.316,0.345l-0.316,0.346l-0.315,0.347l-0.314,0.348l-0.313,0.35l-0.312,0.351l-0.312,0.351l-0.31,0.353l-0.309,0.355l-0.308,0.355l-0.307,0.356l-0.307,0.358l-0.305,0.358l-0.304,0.36l-0.304,0.361l-0.302,0.362l-0.302,0.363l-0.3,0.365l-0.299,0.365l-0.299,0.367l-0.297,0.367l-0.297,0.369l-0.295,0.37l-0.294,0.371l-0.294,0.372l-0.292,0.374l-0.292,0.374l-0.29,0.376l-0.289,0.376l-0.288,0.378l-0.288,0.379l-0.286,0.38l-0.285,0.381l-0.284,0.382l-0.283,0.384l-0.282,0.384l-0.281,0.386l-0.28,0.387l-0.279,0.387l-0.278,0.389l-0.276,0.39l-0.276,0.391l-0.274,0.393l-0.274,0.393l-0.272,0.395l-0.272,0.395l-0.27,0.397l-0.269,0.398l-0.268,0.398l-0.267,0.4l-0.266,0.402l-0.265,0.402l-0.263,0.403l-0.263,0.404l-0.262,0.406l-0.26,0.406l-0.259,0.408l-0.258,0.409l-0.257,0.41l-0.256,0.411l-0.255,0.412l-0.253,0.413l-0.253,0.414l-0.251,0.415l-0.25,0.417l-0.249,0.417l-0.248,0.419l-0.247,0.42l-0.246,0.42l-0.244,0.422l-0.202,0.351l-0.201,0.352l-0.201,0.352l-0.199,0.352l-0.198,0.353l-0.197,0.352l-0.195,0.353l-0.195,0.354l-0.194,0.354l-0.193,0.354l-0.192,0.354l-0.19,0.355l-0.19,0.355l-0.188,0.355l-0.188,0.355l-0.186,0.356l-0.186,0.356l-0.184,0.357l-0.184,0.356l-0.182,0.357l-0.181,0.358l-0.181,0.357l-0.179,0.358l-0.178,0.358l-0.177,0.359l-0.176,0.358l-0.175,0.359l-0.174,0.359l-0.173,0.36l-0.172,0.36l-0.171,0.36l-0.17,0.36l-0.169,0.36l-0.168,0.361l-0.167,0.361l-0.165,0.361l-0.165,0.362l-0.164,0.362l-0.162,0.362l-0.162,0.362l-0.161,0.363l-0.159,0.363l-0.159,0.363l-0.157,0.363l-0.157,0.363l-0.155,0.364l-0.155,0.364l-0.153,0.364l-0.152,0.365l-0.152,0.365l-0.15,0.364l-0.149,0.366l-0.149,0.365l-0.147,0.366l-0.146,0.365l-0.145,0.366l-0.145,0.367l-0.143,0.366l-0.142,0.367l-0.141,0.367l-0.14,0.367l-0.139,0.367l-0.138,0.368l-0.137,0.367l-0.136,0.368l-0.135,0.368l-0.134,0.369l-0.133,0.368l-0.132,0.369l-0.131,0.369l-0.13,0.369l-0.129,0.369l-0.128,0.37l-0.127,0.37l-0.126,0.369l-0.125,0.371l-0.124,0.37l-0.122,0.37l-0.122,0.371l-0.121,0.371l-0.12,0.37l-0.119,0.372l-0.117,0.371l-0.117,0.371l-0.116,0.372l-0.115,0.372l-0.114,0.372l-0.112,0.372l-0.112,0.372l-0.111,0.372l-0.11,0.373l-0.108,0.373l-0.108,0.373l-0.107,0.373l-0.105,0.373l-0.105,0.373l-0.104,0.374l-0.103,0.373l-0.101,0.374l-0.101,0.374l-0.1,0.374l-0.098,0.374l-0.098,0.375l-0.097,0.374l-0.096,0.375l-0.094,0.374l-0.094,0.375l-0.093,0.375l-0.091,0.375l-0.091,0.375l-0.09,0.376l-0.089,0.375l-0.087,0.376l-0.087,0.375l-0.086,0.376l-0.085,0.376l-0.083,0.376l-0.083,0.376l-0.082,0.376l-0.081,0.377l-0.079,0.376l-0.079,0.377l-0.078,0.376l-0.077,0.377l-0.076,0.377l-0.075,0.377l-0.073,0.377l-0.073,0.377l-0.072,0.377l-0.071,0.377l-0.07,0.377l-0.069,0.378l-0.068,0.377l-0.067,0.378l-0.066,0.378l-0.065,0.377l-0.064,0.378l-0.063,0.378l-0.062,0.378l-0.061,0.378l-0.06,0.378l-0.059,0.378l-0.058,0.378l-0.058,0.378l-0.056,0.379l-0.055,0.378l-0.054,0.379l-0.053,0.378l-0.053,0.379l-0.051,0.378l-0.05,0.379l-0.049,0.378l-0.049,0.379l-0.047,0.379l-0.047,0.379l-0.045,0.378l-0.044,0.379l-0.044,0.379l-0.042,0.379l-0.042,0.379l-0.041,0.379l-0.039,0.379l-0.039,0.379l-0.037,0.379l-0.037,0.379l-0.036,0.379l-0.035,0.379l-0.033,0.379l-0.033,0.38l-0.032,0.379l-0.031,0.379l-0.03,0.379l-0.029,0.379l-0.028,0.379l-0.027,0.38l-0.026,0.379l-0.025,0.379l-0.024,0.379l-0.023,0.379l-0.022,0.38l-0.022,0.379l-0.02,0.379l-0.019,0.379l-0.019,0.379l-0.017,0.379l-0.017,0.379l-0.015,0.379l-0.015,0.38l-0.013,0.379l-0.013,0.379l-0.011,0.379l-0.011,0.379l-0.01,0.378l-0.009,0.379l-0.007,0.379l-0.007,0.379l-0.006,0.379l-0.005,0.379l-0.004,0.378l-0.003,0.379l-0.002,0.379l-0.002,0.378l0,0.379l0.001,0.378l0.002,0.379l0.002,0.378l0.004,0.378l0.004,0.379l0.006,0.378l0.006,0.378l0.008,0.378l0.008,0.378l0.009,0.378l0.01,0.378l0.012,0.378l0.012,0.377l0.013,0.378l0.014,0.378l0.015,0.377l0.016,0.378l0.016,0.377l0.018,0.377l0.019,0.377l0.019,0.378l0.021,0.377l0.022,0.377l0.022,0.376l0.023,0.377l0.025,0.377l0.025,0.376l0.026,0.377l0.027,0.376l0.028,0.376l0.029,0.377l0.03,0.376l0.031,0.375l0.032,0.376l0.033,0.376l0.034,0.376l0.034,0.375l0.036,0.375l0.036,0.376l0.038,0.375l0.038,0.375l0.039,0.375l0.04,0.374l0.042,0.375l0.042,0.375l0.043,0.374l0.044,0.374l0.044,0.374l0.046,0.374l0.047,0.374l0.048,0.374l0.048,0.373l0.05,0.374l0.05,0.373l0.051,0.373l0.053,0.373l0.053,0.373l0.054,0.372l0.055,0.373l0.056,0.372l0.057,0.372l0.057,0.372l0.059,0.372l0.06,0.372l0.06,0.371l0.062,0.372l0.062,0.371l0.063,0.371l0.065,0.371l0.065,0.37l0.066,0.371l0.067,0.37l0.068,0.37l0.068,0.37l0.07,0.37l0.071,0.369l0.071,0.37l0.073,0.369l0.073,0.369l0.074,0.369l0.076,0.368l0.076,0.369l0.077,0.368l0.078,0.368l0.078,0.368l0.08,0.367l0.081,0.368l0.081,0.367l0.083,0.367l0.083,0.367l0.084,0.366l0.085,0.367l0.087,0.366l0.087,0.366l0.087,0.365l0.089,0.366l0.09,0.365l0.091,0.365l0.091,0.365l0.092,0.364l0.094,0.365l0.094,0.364l0.095,0.364l0.096,0.363l0.097,0.363l0.098,0.364l0.098,0.362l0.1,0.363l0.101,0.363l0.101,0.362l0.102,0.362l0.103,0.361l0.104,0.362l0.105,0.361l0.106,0.361l0.107,0.36l0.108,0.361l0.108,0.36l0.11,0.359l0.11,0.36l0.111,0.359l0.112,0.359l0.113,0.359l0.114,0.359l0.115,0.358l0.116,0.358l0.116,0.357l0.118,0.358l0.118,0.357l0.119,0.357l0.121,0.356l0.121,0.356l0.121,0.356l0.123,0.356l0.124,0.355l0.124,0.355l0.126,0.355l0.126,0.355l0.127,0.354l0.128,0.354l0.129,0.353l0.13,0.353l0.131,0.353l0.132,0.353l0.132,0.352l0.133,0.352l0.135,0.352l0.135,0.351l0.136,0.351l0.137,0.351l0.137,0.35l0.139,0.35l0.14,0.35l0.14,0.35l0.141,0.349l0.142,0.348l0.143,0.349l0.144,0.348l0.145,0.348l0.146,0.347l0.146,0.347l0.147,0.347l0.149,0.346l0.149,0.346l0.15,0.346l0.151,0.345l0.151,0.345l0.153,0.345l0.153,0.344l0.155,0.344l0.155,0.344l0.156,0.343l0.157,0.343l0.158,0.342l0.158,0.342l0.16,0.342l0.16,0.341l0.162,0.341l0.162,0.341l0.163,0.34l0.163,0.34l0.165,0.34l0.166,0.339l0.166,0.338l0.167,0.339l0.169,0.338l0.169,0.337l0.169,0.337l0.171,0.337l0.172,0.337l0.172,0.336l0.174,0.335l0.174,0.335l0.175,0.335l0.176,0.335l0.176,0.334l0.178,0.333l0.178,0.333l0.18,0.333l0.18,0.332l0.181,0.332l0.182,0.332l0.182,0.331l0.184,0.331l0.184,0.33l0.185,0.33l0.186,0.329l0.187,0.329l0.188,0.329l0.189,0.328l0.189,0.327l0.191,0.328l0.191,0.327l0.192,0.326l0.193,0.326l0.193,0.325l0.195,0.325l0.195,0.325l0.197,0.324l0.197,0.324l0.198,0.323l0.199,0.323l0.199,0.322l0.201,0.322l0.201,0.322l0.202,0.321l0.203,0.32l0.204,0.32l0.205,0.32l0.205,0.319l0.206,0.319l0.208,0.318l0.208,0.318l0.208,0.317l0.21,0.317l0.211,0.316l0.211,0.316l0.212,0.315l0.213,0.315l0.214,0.314l0.215,0.314l0.215,0.314l0.217,0.313l0.217,0.312l0.218,0.312l0.219,0.311l0.219,0.311l0.221,0.311l0.221,0.31l0.223,0.309l0.223,0.309l0.223,0.308l0.225,0.308l0.225,0.308l0.227,0.306l0.227,0.307l0.228,0.306l0.229,0.305l0.229,0.305l0.231,0.304l0.231,0.304l0.232,0.303l0.233,0.303l0.234,0.302l0.234,0.302l0.236,0.301l0.236,0.3l0.237,0.3l0.238,0.3l0.238,0.299l0.24,0.298l0.24,0.298l0.241,0.298l0.242,0.296l0.243,0.297l0.243,0.295l0.245,0.295l0.245,0.295l0.246,0.294l0.247,0.294l0.247,0.292l0.249,0.293l0.249,0.292l0.25,0.291l0.251,0.29l0.252,0.291l0.252,0.289l0.253,0.289l0.255,0.288l0.254,0.288l0.256,0.287l0.257,0.287l0.257,0.286l0.258,0.286l0.259,0.284l0.26,0.285l0.261,0.284l0.261,0.283l0.262,0.282l0.263,0.282l0.264,0.281l0.265,0.281l0.265,0.28l0.266,0.28l0.267,0.279l0.268,0.278l0.269,0.278l0.269,0.277l0.27,0.277l-65.523,113.489l0.299,0.488l0.3,0.487l0.303,0.486l0.304,0.485l0.307,0.483l0.308,0.483l0.31,0.481l0.313,0.481l0.314,0.479l0.316,0.479l0.318,0.477l0.319,0.476l0.322,0.475l0.324,0.474l0.325,0.473l0.327,0.472l0.33,0.47l0.331,0.47l0.333,0.468l0.335,0.468l0.337,0.466l0.338,0.464l0.341,0.464l0.342,0.463l0.345,0.461l0.346,0.46l0.348,0.459l0.35,0.458l0.352,0.457l0.354,0.455l0.355,0.454l0.358,0.453l0.359,0.452l0.361,0.451l0.363,0.449l0.365,0.448l0.367,0.447l0.369,0.445l0.37,0.445l0.373,0.443l0.374,0.441l0.376,0.441l0.378,0.439l0.379,0.438l0.382,0.437l0.384,0.435l0.385,0.434l0.387,0.432l0.389,0.432l0.391,0.43l0.392,0.428l0.395,0.428l0.396,0.426l0.398,0.424l0.4,0.423l0.402,0.422l0.404,0.421l0.405,0.419l0.408,0.418l0.409,0.416l0.411,0.415l0.412,0.413l0.415,0.412l0.416,0.411l0.418,0.409l0.42,0.408l0.422,0.406l0.424,0.405l0.425,0.404l0.427,0.402l0.429,0.401l0.431,0.399l0.433,0.397l0.434,0.396l0.437,0.395l0.438,0.393l0.439,0.392l0.442,0.39l0.443,0.389l0.446,0.387l0.446,0.385l0.449,0.384l0.451,0.383l0.452,0.381l0.454,0.379l0.456,0.378l0.458,0.377l0.459,0.374l0.461,0.373l0.463,0.372l0.465,0.37l0.466,0.368l0.469,0.367l0.47,0.365l0.472,0.364l0.473,0.362l0.475,0.36l0.477,0.359l0.479,0.357l0.481,0.356l0.482,0.353l0.484,0.352l0.486,0.351l0.488,0.349l0.489,0.347l0.491,0.345l0.493,0.344l0.494,0.342l0.497,0.34l0.498,0.339l0.5,0.337l0.501,0.335l0.503,0.333l0.505,0.332l0.507,0.33l0.508,0.328l0.51,0.327l0.512,0.325l0.514,0.323l0.515,0.321l0.517,0.319l0.519,0.318l0.52,0.316l0.523,0.314l0.524,0.312l0.525,0.311l0.527,0.308l0.529,0.307l0.423,0.243l0.423,0.242l0.424,0.24l0.424,0.238l0.424,0.238l0.425,0.235l0.425,0.234l0.426,0.233l0.426,0.231l0.427,0.229l0.427,0.228l0.427,0.226l0.428,0.225l0.429,0.224l0.428,0.222l0.43,0.22l0.429,0.219l0.43,0.217l0.431,0.216l0.43,0.215l0.432,0.213l0.431,0.211l0.432,0.21l0.433,0.208l0.432,0.207l0.433,0.206l0.434,0.204l0.434,0.202l0.434,0.201l0.435,0.199l0.435,0.198l0.435,0.197l0.436,0.195l0.436,0.193l0.437,0.192l0.436,0.191l0.438,0.189l0.437,0.187l0.438,0.186l0.438,0.185l0.439,0.183l0.438,0.181l0.44,0.18l0.439,0.179l0.44,0.177l0.44,0.176l0.441,0.174l0.44,0.173l0.442,0.171l0.441,0.169l0.442,0.169l0.442,0.166l0.442,0.166l0.443,0.164l0.443,0.162l0.443,0.161l0.443,0.159l0.444,0.158l0.444,0.157l0.444,0.155l0.445,0.153l0.445,0.152l0.445,0.151l0.445,0.149l0.446,0.148l0.446,0.146l0.446,0.145l0.446,0.143l0.447,0.142l0.447,0.14l0.447,0.139l0.447,0.137l0.448,0.136l0.448,0.135l0.448,0.133l0.448,0.132l0.449,0.13l0.448,0.128l0.449,0.128l0.45,0.126l0.449,0.124l0.45,0.123l0.449,0.121l0.45,0.12l0.45,0.119l0.451,0.117l0.45,0.116l0.451,0.114l0.451,0.113l0.451,0.111l0.452,0.11l0.451,0.108l0.452,0.107l0.451,0.106l0.452,0.104l0.453,0.103l0.452,0.101l0.452,0.1l0.453,0.098l0.453,0.097l0.453,0.096l0.453,0.094l0.453,0.092l0.453,0.092l0.453,0.089l0.454,0.089l0.454,0.087l0.454,0.085l0.454,0.084l0.454,0.083l0.454,0.081l0.454,0.08l0.454,0.078l0.455,0.077l0.455,0.076l0.454,0.074l0.455,0.073l0.455,0.071l0.455,0.07l0.455,0.068l0.455,0.067l0.455,0.066l0.456,0.064l0.455,0.063l0.456,0.061l0.455,0.06l0.456,0.059l0.455,0.057l0.456,0.055l0.456,0.055l0.455,0.053l0.456,0.051l0.456,0.05l0.456,0.049l0.456,0.047l0.456,0.046l0.456,0.045l0.456,0.043l0.456,0.041l0.456,0.041l0.457,0.038l0.456,0.038l0.456,0.036l0.456,0.035l0.456,0.033l0.456,0.032l0.457,0.03l0.456,0.029l0.456,0.028l0.456,0.026l0.456,0.025l0.456,0.024l0.456,0.022l0.457,0.021l0.456,0.019l0.456,0.018l0.456,0.017l0.456,0.015l0.456,0.014l0.455,0.012l0.456,0.011l0.456,0.01l0.456,0.008l0.456,0.007l0.455,0.005l0.456,0.005l0.455,0.002l0.456,0.002l0.455,0l0.455,-0.002l0.456,-0.002l0.455,-0.004l0.455,-0.006l0.455,-0.007l0.455,-0.008l0.455,-0.01l0.454,-0.011l0.455,-0.012l0.454,-0.014l0.455,-0.015l0.454,-0.016l0.454,-0.018l0.454,-0.019l0.454,-0.021l0.454,-0.021l0.454,-0.024l0.453,-0.024l0.454,-0.026l0.453,-0.028l0.453,-0.028l0.453,-0.03l0.453,-0.032l0.453,-0.033l0.453,-0.034l0.452,-0.035l0.452,-0.037l0.453,-0.038l0.452,-0.04l0.451,-0.04l0.452,-0.043l0.452,-0.043l0.451,-0.045l0.451,-0.046l0.451,-0.048l0.451,-0.049l0.45,-0.05l0.451,-0.052l0.45,-0.053l0.45,-0.054l0.45,-0.056l0.449,-0.057l0.45,-0.058l0.449,-0.06l0.449,-0.061l0.448,-0.062l0.449,-0.064l0.448,-0.065l0.448,-0.066l0.448,-0.068l0.448,-0.069l0.447,-0.071l0.447,-0.071l0.447,-0.073l0.447,-0.075l0.446,-0.075l0.447,-0.077l0.445,-0.079l0.446,-0.079l0.446,-0.081l0.445,-0.083l0.445,-0.083l0.444,-0.085l0.444,-0.087l0.444,-0.087l0.444,-0.089l0.444,-0.09l0.443,-0.092l0.443,-0.093l0.443,-0.094l0.442,-0.095l0.442,-0.097l0.442,-0.098l0.441,-0.1l0.441,-0.101l0.441,-0.102l0.44,-0.103l0.441,-0.105l0.439,-0.106l0.44,-0.107l0.439,-0.109l0.439,-0.11l0.439,-0.111l0.438,-0.112l0.438,-0.114l0.437,-0.115l0.437,-0.117l0.437,-0.118l0.437,-0.119l0.436,-0.12l0.436,-0.122l0.435,-0.123l0.435,-0.124l0.435,-0.125l0.434,-0.127l0.434,-0.128l0.434,-0.13l0.433,-0.13l0.433,-0.132l0.432,-0.134l0.432,-0.134l0.432,-0.136l0.431,-0.137l0.431,-0.139l0.43,-0.14l0.43,-0.141l0.43,-0.142l0.429,-0.143l0.429,-0.145l0.428,-0.147l0.428,-0.147l0.427,-0.149l0.428,-0.15l0.426,-0.151l0.426,-0.153l0.426,-0.153l0.426,-0.155l0.424,-0.157l0.425,-0.158l0.424,-0.158l0.423,-0.161l0.424,-0.161l0.422,-0.163l0.422,-0.164l0.422,-0.165l0.421,-0.167l0.421,-0.168l0.42,-0.169l0.42,-0.17l0.419,-0.172l0.419,-0.173l0.419,-0.174l0.418,-0.175l0.417,-0.177l0.417,-0.178l0.416,-0.179l0.416,-0.181l0.415,-0.181l0.415,-0.183l0.415,-0.184l0.413,-0.186l0.414,-0.187l0.412,-0.188l0.413,-0.189l0.411,-0.19l0.412,-0.192l0.41,-0.193l0.41,-0.195l0.41,-0.195l0.409,-0.197l0.408,-0.198l0.408,-0.199l0.408,-0.201l0.406,-0.201l0.407,-0.203l0.405,-0.205l0.406,-0.205l0.404,-0.207l0.404,-0.208l0.403,-0.209l0.403,-0.21l0.403,-0.212l0.401,-0.213l0.401,-0.214l0.401,-0.216l0.4,-0.216l0.399,-0.218l0.398,-0.219l0.399,-0.22l0.397,-0.222l0.397,-0.223l0.396,-0.224l0.396,-0.225l0.395,-0.227l0.394,-0.227l0.394,-0.229l0.393,-0.23l0.392,-0.232l0.392,-0.232l0.391,-0.234l0.391,-0.235l0.39,-0.236l0.389,-0.238l0.389,-0.239l0.388,-0.24l0.387,-0.241l0.387,-0.242l0.385,-0.244l0.386,-0.244l0.384,-0.246l0.384,-0.248l0.384,-0.248l0.382,-0.25l0.382,-0.251l0.381,-0.252l0.381,-0.253l0.38,-0.254l0.379,-0.256l0.378,-0.257l0.378,-0.258l0.377,-0.26l0.376,-0.26l0.376,-0.262l0.375,-0.263l0.374,-0.264l0.373,-0.265l0.373,-0.267l0.372,-0.267l0.371,-0.269l0.371,-0.27l0.369,-0.272l0.369,-0.272l0.369,-0.274l0.367,-0.275l0.367,-0.276l0.366,-0.277l0.365,-0.279l0.365,-0.279l0.364,-0.281l0.363,-0.282l0.362,-0.284l0.361,-0.284l0.361,-0.286l0.36,-0.286l0.359,-0.288l0.358,-0.29l0.358,-0.29l0.356,-0.291l0.356,-0.293l0.356,-0.294l0.354,-0.295l0.353,-0.296l0.353,-0.298l0.352,-0.298l0.351,-0.3l0.35,-0.301l0.35,-0.302l0.348,-0.304l0.348,-0.304l0.347,-0.306l0.346,-0.307l0.346,-0.308l0.344,-0.309l0.344,-0.31l0.342,-0.312l0.342,-0.312l0.341,-0.314l0.341,-0.315l0.339,-0.316l0.339,-0.318l0.337,-0.318l0.337,-0.32l0.336,-0.321l0.335,-0.322l0.334,-0.323l0.333,-0.324l0.333,-0.326l0.331,-0.326l0.331,-0.328l0.329,-0.329l0.329,-0.33l0.328,-0.331l0.327,-0.332l0.326,-0.334l0.325,-0.335l0.325,-0.336l0.323,-0.337l0.322,-0.338l0.322,-0.339l0.32,-0.34l0.32,-0.342l0.319,-0.343l0.318,-0.344l0.316,-0.345l0.316,-0.346l0.315,-0.347l0.314,-0.348l0.313,-0.35l0.312,-0.351l0.312,-0.351l0.31,-0.353l0.309,-0.355l0.308,-0.355l0.307,-0.356l0.307,-0.358l0.305,-0.358l0.304,-0.36l0.304,-0.361l0.302,-0.362l0.302,-0.363l0.3,-0.365l0.299,-0.365l0.299,-0.367l0.297,-0.367l0.297,-0.369l0.295,-0.37l0.294,-0.371l0.294,-0.372l0.292,-0.374l0.292,-0.374l0.29,-0.376l0.289,-0.376l0.288,-0.378l0.288,-0.379l0.286,-0.38l0.285,-0.381l0.284,-0.382l0.283,-0.384l0.282,-0.384l0.281,-0.386l0.28,-0.387l0.279,-0.387l0.278,-0.389l0.276,-0.39l0.276,-0.391l0.274,-0.393l0.274,-0.393l0.272,-0.395l0.272,-0.395l0.27,-0.397l0.269,-0.398l0.268,-0.398l0.267,-0.4l0.266,-0.402l0.265,-0.402l0.263,-0.403l0.263,-0.404l0.262,-0.406l0.26,-0.406l0.259,-0.408l0.258,-0.409l0.257,-0.41l0.256,-0.411l0.255,-0.412l0.253,-0.413l0.253,-0.414l0.251,-0.415l0.25,-0.417l0.249,-0.417l0.248,-0.419l0.247,-0.42l0.246,-0.42l0.244,-0.422l0.202,-0.351l0.201,-0.352l0.201,-0.352l0.199,-0.352l0.198,-0.353l0.197,-0.352l0.195,-0.353l0.195,-0.354l0.194,-0.354l0.193,-0.354l0.192,-0.354l0.19,-0.355l0.19,-0.355l0.188,-0.355l0.188,-0.355l0.186,-0.356l0.186,-0.356l0.184,-0.357l0.184,-0.356l0.182,-0.357l0.181,-0.358l0.181,-0.357l0.179,-0.358l0.178,-0.358l0.177,-0.359l0.176,-0.358l0.175,-0.359l0.174,-0.359l0.173,-0.36l0.172,-0.36l0.171,-0.36l0.17,-0.36l0.169,-0.36l0.168,-0.361l0.167,-0.361l0.165,-0.361l0.165,-0.362l0.164,-0.362l0.162,-0.362l0.162,-0.362l0.161,-0.363l0.159,-0.363l0.159,-0.363l0.157,-0.363l0.157,-0.363l0.155,-0.364l0.155,-0.364l0.153,-0.364l0.152,-0.365l0.152,-0.365l0.15,-0.364l0.149,-0.366l0.149,-0.365l0.147,-0.366l0.146,-0.365l0.145,-0.366l0.145,-0.367l0.143,-0.366l0.142,-0.367l0.141,-0.367l0.14,-0.367l0.139,-0.367l0.138,-0.368l0.137,-0.367l0.136,-0.368l0.135,-0.368l0.134,-0.369l0.133,-0.368l0.132,-0.369l0.131,-0.369l0.13,-0.369l0.129,-0.369l0.128,-0.37l0.127,-0.37l0.126,-0.369l0.125,-0.371l0.124,-0.37l0.122,-0.37l0.122,-0.371l0.121,-0.371l0.12,-0.37l0.119,-0.372l0.117,-0.371l0.117,-0.371l0.116,-0.372l0.115,-0.372l0.114,-0.372l0.112,-0.372l0.112,-0.372l0.111,-0.372l0.11,-0.373l0.108,-0.373l0.108,-0.373l0.107,-0.373l0.105,-0.373l0.105,-0.373l0.104,-0.374l0.103,-0.373l0.101,-0.374l0.101,-0.374l0.1,-0.374l0.098,-0.374l0.098,-0.375l0.097,-0.374l0.096,-0.375l0.094,-0.374l0.094,-0.375l0.093,-0.375l0.091,-0.375l0.091,-0.375l0.09,-0.376l0.089,-0.375l0.087,-0.376l0.087,-0.375l0.086,-0.376l0.085,-0.376l0.083,-0.376l0.083,-0.376l0.082,-0.376l0.081,-0.377l0.079,-0.376l0.079,-0.377l0.078,-0.376l0.077,-0.377l0.076,-0.377l0.075,-0.377l0.073,-0.377l0.073,-0.377l0.072,-0.377l0.071,-0.377l0.07,-0.377l0.069,-0.378l0.068,-0.377l0.067,-0.378l0.066,-0.378l0.065,-0.377l0.064,-0.378l0.063,-0.378l0.062,-0.378l0.061,-0.378l0.06,-0.378l0.059,-0.378l0.058,-0.378l0.058,-0.378l0.056,-0.379l0.055,-0.378l0.054,-0.379l0.053,-0.378l0.053,-0.379l0.051,-0.378l0.05,-0.379l0.049,-0.378l0.049,-0.379l0.047,-0.379l0.047,-0.379l0.045,-0.378l0.044,-0.379l0.044,-0.379l0.042,-0.379l0.042,-0.379l0.041,-0.379l0.039,-0.379l0.039,-0.379l0.037,-0.379l0.037,-0.379l0.036,-0.379l0.035,-0.379l0.033,-0.379l0.033,-0.38l0.032,-0.379l0.031,-0.379l0.03,-0.379l0.029,-0.379l0.028,-0.379l0.027,-0.38l0.026,-0.379l0.025,-0.379l0.024,-0.379l0.023,-0.379l0.022,-0.38l0.022,-0.379l0.02,-0.379l0.019,-0.379l0.019,-0.379l0.017,-0.379l0.017,-0.379l0.015,-0.379l0.015,-0.38l0.013,-0.379l0.013,-0.379l0.011,-0.379l0.011,-0.379l0.01,-0.378l0.009,-0.379l0.007,-0.379l0.007,-0.379l0.006,-0.379l0.005,-0.379l0.004,-0.378l0.003,-0.379l0.002,-0.379l0.002,-0.378l0,-0.379l-0.001,-0.378l-0.002,-0.379l-0.002,-0.378l-0.004,-0.378l-0.004,-0.379l-0.006,-0.378l-0.006,-0.378l-0.008,-0.378l-0.008,-0.378l-0.009,-0.378l-0.01,-0.378l-0.012,-0.378l-0.012,-0.377l-0.013,-0.378l-0.014,-0.378l-0.015,-0.377l-0.016,-0.378l-0.016,-0.377l-0.018,-0.377l-0.019,-0.377l-0.019,-0.378l-0.021,-0.377l-0.022,-0.377l-0.022,-0.376l-0.023,-0.377l-0.025,-0.377l-0.025,-0.376l-0.026,-0.377l-0.027,-0.376l-0.028,-0.376l-0.029,-0.377l-0.03,-0.376l-0.031,-0.375l-0.032,-0.376l-0.033,-0.376l-0.034,-0.376l-0.034,-0.375l-0.036,-0.375l-0.036,-0.376l-0.038,-0.375l-0.038,-0.375l-0.039,-0.375l-0.04,-0.374l-0.042,-0.375l-0.042,-0.375l-0.043,-0.374l-0.044,-0.374l-0.044,-0.374l-0.046,-0.374l-0.047,-0.374l-0.048,-0.374l-0.048,-0.373l-0.05,-0.374l-0.05,-0.373l-0.051,-0.373l-0.053,-0.373l-0.053,-0.373l-0.054,-0.372l-0.055,-0.373l-0.056,-0.372l-0.057,-0.372l-0.057,-0.372l-0.059,-0.372l-0.06,-0.372l-0.06,-0.371l-0.062,-0.372l-0.062,-0.371l-0.063,-0.371l-0.065,-0.371l-0.065,-0.37l-0.066,-0.371l-0.067,-0.37l-0.068,-0.37l-0.068,-0.37l-0.07,-0.37l-0.071,-0.369l-0.071,-0.37l-0.073,-0.369l-0.073,-0.369l-0.074,-0.369l-0.076,-0.368l-0.076,-0.369l-0.077,-0.368l-0.078,-0.368l-0.078,-0.368l-0.08,-0.367l-0.081,-0.368l-0.081,-0.367l-0.083,-0.367l-0.083,-0.367l-0.084,-0.366l-0.085,-0.367l-0.087,-0.366l-0.087,-0.366l-0.087,-0.365l-0.089,-0.366l-0.09,-0.365l-0.091,-0.365l-0.091,-0.365l-0.092,-0.364l-0.094,-0.365l-0.094,-0.364l-0.095,-0.364l-0.096,-0.363l-0.097,-0.363l-0.098,-0.364l-0.098,-0.362l-0.1,-0.363l-0.101,-0.363l-0.101,-0.362l-0.102,-0.362l-0.103,-0.361l-0.104,-0.362l-0.105,-0.361l-0.106,-0.361l-0.107,-0.36l-0.108,-0.361l-0.108,-0.36l-0.11,-0.359l-0.11,-0.36l-0.111,-0.359l-0.112,-0.359l-0.113,-0.359l-0.114,-0.359l-0.115,-0.358l-0.116,-0.358l-0.116,-0.357l-0.118,-0.358l-0.118,-0.357l-0.119,-0.357l-0.121,-0.356l-0.121,-0.356l-0.121,-0.356l-0.123,-0.356l-0.124,-0.355l-0.124,-0.355l-0.126,-0.355l-0.126,-0.355l-0.127,-0.354l-0.128,-0.354l-0.129,-0.353l-0.13,-0.353l-0.131,-0.353l-0.132,-0.353l-0.132,-0.352l-0.133,-0.352l-0.135,-0.352l-0.135,-0.351l-0.136,-0.351l-0.137,-0.351l-0.137,-0.35l-0.139,-0.35l-0.14,-0.35l-0.14,-0.35l-0.141,-0.349l-0.142,-0.348l-0.143,-0.349l-0.144,-0.348l-0.145,-0.348l-0.146,-0.347l-0.146,-0.347l-0.147,-0.347l-0.149,-0.346l-0.149,-0.346l-0.15,-0.346l-0.151,-0.345l-0.151,-0.345l-0.153,-0.345l-0.153,-0.344l-0.155,-0.344l-0.155,-0.344l-0.156,-0.343l-0.157,-0.343l-0.158,-0.342l-0.158,-0.342l-0.16,-0.342l-0.16,-0.341l-0.162,-0.341l-0.162,-0.341l-0.163,-0.34l-0.163,-0.34l-0.165,-0.34l-0.166,-0.339l-0.166,-0.338l-0.167,-0.339l-0.169,-0.338l-0.169,-0.337l-0.169,-0.337l-0.171,-0.337l-0.172,-0.337l-0.172,-0.336l-0.174,-0.335l-0.174,-0.335l-0.175,-0.335l-0.176,-0.335l-0.176,-0.334l-0.178,-0.333l-0.178,-0.333l-0.18,-0.333l-0.18,-0.332l-0.181,-0.332l-0.182,-0.332l-0.182,-0.331l-0.184,-0.331l-0.184,-0.33l-0.185,-0.33l-0.186,-0.329l-0.187,-0.329l-0.188,-0.329l-0.189,-0.328l-0.189,-0.327l-0.191,-0.328l-0.191,-0.327l-0.192,-0.326l-0.193,-0.326l-0.193,-0.325l-0.195,-0.325l-0.195,-0.325l-0.197,-0.324l-0.197,-0.324l-0.198,-0.323l-0.199,-0.323l-0.199,-0.322l-0.201,-0.322l-0.201,-0.322l-0.202,-0.321l-0.203,-0.32l-0.204,-0.32l-0.205,-0.32l-0.205,-0.319l-0.206,-0.319l-0.208,-0.318l-0.208,-0.318l-0.208,-0.317l-0.21,-0.317l-0.211,-0.316l-0.211,-0.316l-0.212,-0.315l-0.213,-0.315l-0.214,-0.314l-0.215,-0.314l-0.215,-0.314l-0.217,-0.313l-0.217,-0.312l-0.218,-0.312l-0.219,-0.311l-0.219,-0.311l-0.221,-0.311l-0.221,-0.31l-0.223,-0.309l-0.223,-0.309l-0.223,-0.308l-0.225,-0.308l-0.225,-0.308l-0.227,-0.306l-0.227,-0.307l-0.228,-0.306l-0.229,-0.305l-0.229,-0.305l-0.231,-0.304l-0.231,-0.304l-0.232,-0.303l-0.233,-0.303l-0.234,-0.302l-0.234,-0.302l-0.236,-0.301l-0.236,-0.3l-0.237,-0.3l-0.238,-0.3l-0.238,-0.299l-0.24,-0.298l-0.24,-0.298l-0.241,-0.298l-0.242,-0.296l-0.243,-0.297l-0.243,-0.295l-0.245,-0.295l-0.245,-0.295l-0.246,-0.294l-0.247,-0.294l-0.247,-0.292l-0.249,-0.293l-0.249,-0.292l-0.25,-0.291l-0.251,-0.29l-0.252,-0.291l-0.252,-0.289l-0.253,-0.289l-0.255,-0.288l-0.254,-0.288l-0.256,-0.287l-0.257,-0.287l-0.257,-0.286l-0.258,-0.286l-0.259,-0.284l-0.26,-0.285l-0.261,-0.284l-0.261,-0.283l-0.262,-0.282l-0.263,-0.282l-0.264,-0.281l-0.265,-0.281l-0.265,-0.28l-0.266,-0.28l-0.267,-0.279l-0.268,-0.278l-0.269,-0.278l-0.269,-0.277l-0.27,-0.277l65.523,-113.489l-0.299,-0.488l-0.3,-0.487l-0.303,-0.486l-0.304,-0.485l-0.307,-0.483l-0.308,-0.483l-0.31,-0.481l-0.313,-0.481l-0.314,-0.479l-0.316,-0.479l-0.318,-0.477l-0.319,-0.476l-0.322,-0.475l-0.324,-0.474l-0.325,-0.473l-0.327,-0.472l-0.33,-0.47l-0.331,-0.47l-0.333,-0.468l-0.335,-0.468l-0.337,-0.466l-0.338,-0.464l-0.341,-0.464l-0.342,-0.463l-0.345,-0.461l-0.346,-0.46l-0.348,-0.459l-0.35,-0.458l-0.352,-0.457l-0.354,-0.455l-0.355,-0.454l-0.358,-0.453l-0.359,-0.452l-0.361,-0.451l-0.363,-0.449l-0.365,-0.448l-0.367,-0.447l-0.369,-0.445l-0.37,-0.445l-0.373,-0.443l-0.374,-0.441l-0.376,-0.441l-0.378,-0.439l-0.379,-0.438l-0.382,-0.437l-0.384,-0.435l-0.385,-0.434l-0.387,-0.432l-0.389,-0.432l-0.391,-0.43l-0.392,-0.428l-0.395,-0.428l-0.396,-0.426l-0.398,-0.424l-0.4,-0.423l-0.402,-0.422l-0.404,-0.421l-0.405,-0.419l-0.408,-0.418l-0.409,-0.416l-0.411,-0.415l-0.412,-0.413l-0.415,-0.412l-0.416,-0.411l-0.418,-0.409l-0.42,-0.408l-0.422,-0.406l-0.424,-0.405l-0.425,-0.404l-0.427,-0.402l-0.429,-0.401l-0.431,-0.399l-0.433,-0.397l-0.434,-0.396l-0.437,-0.395l-0.438,-0.393l-0.439,-0.392l-0.442,-0.39l-0.443,-0.389l-0.446,-0.387l-0.446,-0.385l-0.449,-0.384l-0.451,-0.383l-0.452,-0.381l-0.454,-0.379l-0.456,-0.378l-0.458,-0.377l-0.459,-0.374l-0.461,-0.373l-0.463,-0.372l-0.465,-0.37l-0.466,-0.368l-0.469,-0.367l-0.47,-0.365l-0.472,-0.364l-0.473,-0.362l-0.475,-0.36l-0.477,-0.359l-0.479,-0.357l-0.481,-0.356l-0.482,-0.353l-0.484,-0.352l-0.486,-0.351l-0.488,-0.349l-0.489,-0.347l-0.491,-0.345l-0.493,-0.344l-0.494,-0.342l-0.497,-0.34l-0.498,-0.339l-0.5,-0.337l-0.501,-0.335l-0.503,-0.333l-0.505,-0.332l-0.507,-0.33l-0.508,-0.328l-0.51,-0.327l-0.512,-0.325l-0.514,-0.323l-0.515,-0.321l-0.517,-0.319l-0.519,-0.318l-0.52,-0.316l-0.523,-0.314l-0.524,-0.312l-0.525,-0.311l-0.527,-0.308l-0.529,-0.307l-0.423,-0.243l-0.423,-0.242l-0.424,-0.24l-0.424,-0.238l-0.424,-0.238l-0.425,-0.235l-0.425,-0.234l-0.426,-0.233l-0.426,-0.231l-0.427,-0.229l-0.427,-0.228l-0.427,-0.226l-0.428,-0.225l-0.429,-0.224l-0.428,-0.222l-0.43,-0.22l-0.429,-0.219l-0.43,-0.217l-0.431,-0.216l-0.43,-0.215l-0.432,-0.213l-0.431,-0.211l-0.432,-0.21l-0.433,-0.208l-0.432,-0.207l-0.433,-0.206l-0.434,-0.204l-0.434,-0.202l-0.434,-0.201l-0.435,-0.199l-0.435,-0.198l-0.435,-0.197l-0.436,-0.195l-0.436,-0.193l-0.437,-0.192l-0.436,-0.191l-0.438,-0.189l-0.437,-0.187l-0.438,-0.186l-0.438,-0.185l-0.439,-0.183l-0.438,-0.181l-0.44,-0.18l-0.439,-0.179l-0.44,-0.177l-0.44,-0.176l-0.441,-0.174l-0.44,-0.173l-0.442,-0.171l-0.441,-0.169l-0.442,-0.169l-0.442,-0.166l-0.442,-0.166l-0.443,-0.164l-0.443,-0.162l-0.443,-0.161l-0.443,-0.159l-0.444,-0.158l-0.444,-0.157l-0.444,-0.155l-0.445,-0.153l-0.445,-0.152l-0.445,-0.151l-0.445,-0.149l-0.446,-0.148l-0.446,-0.146l-0.446,-0.145l-0.446,-0.143l-0.447,-0.142l-0.447,-0.14l-0.447,-0.139l-0.447,-0.137l-0.448,-0.136l-0.448,-0.135l-0.448,-0.133l-0.448,-0.132l-0.449,-0.13l-0.448,-0.128l-0.449,-0.128l-0.45,-0.126l-0.449,-0.124l-0.45,-0.123l-0.449,-0.121l-0.45,-0.12l-0.45,-0.119l-0.451,-0.117l-0.45,-0.116l-0.451,-0.114l-0.451,-0.113l-0.451,-0.111l-0.452,-0.11l-0.451,-0.108l-0.452,-0.107l-0.451,-0.106l-0.452,-0.104l-0.453,-0.103l-0.452,-0.101l-0.452,-0.1l-0.453,-0.098l-0.453,-0.097l-0.453,-0.096l-0.453,-0.094l-0.453,-0.092l-0.453,-0.092l-0.453,-0.089l-0.454,-0.089l-0.454,-0.087l-0.454,-0.085l-0.454,-0.084l-0.454,-0.083l-0.454,-0.081l-0.454,-0.08l-0.454,-0.078l-0.455,-0.077l-0.455,-0.076l-0.454,-0.074l-0.455,-0.073l-0.455,-0.071l-0.455,-0.07l-0.455,-0.068l-0.455,-0.067l-0.455,-0.066l-0.456,-0.064l-0.455,-0.063l-0.456,-0.061l-0.455,-0.06l-0.456,-0.059l-0.455,-0.057l-0.456,-0.055l-0.456,-0.055l-0.455,-0.053l-0.456,-0.051l-0.456,-0.05l-0.456,-0.049l-0.456,-0.047l-0.456,-0.046l-0.456,-0.045l-0.456,-0.043l-0.456,-0.041l-0.456,-0.041l-0.457,-0.038l-0.456,-0.038l-0.456,-0.036l-0.456,-0.035l-0.456,-0.033l-0.456,-0.032l-0.457,-0.03l-0.456,-0.029l-0.456,-0.028l-0.456,-0.026l-0.456,-0.025l-0.456,-0.024l-0.456,-0.022l-0.457,-0.021l-0.456,-0.019l-0.456,-0.018l-0.456,-0.017l-0.456,-0.015l-0.456,-0.014l-0.455,-0.012l-0.456,-0.011l-0.456,-0.01l-0.456,-0.008l-0.456,-0.007l-0.455,-0.005l-0.456,-0.005l-0.455,-0.002l-0.456,-0.002l-0.455,0l-0.455,0.002Z" style="fill:#fff;"/><rect id="Mesa:-Cuadrado" serif:id="Mesa: Cuadrado" x="0" y="0" width="512" height="512" style="fill:none;"/></svg>